<mxfile host="app.diagrams.net" modified="2023-05-09T12:45:45.410Z" agent="Mozilla/5.0 (Windows NT 10.0; Win64; x64) AppleWebKit/537.36 (KHTML, like Gecko) Chrome/112.0.0.0 Safari/537.36" version="21.1.7" etag="Zv0tIIMNKI2EnECjwZaX" type="github">
  <diagram name="Page-1" id="DgCuI_8YGEBvD6g-5Mcl">
    <mxGraphModel>
      <root>
        <mxCell id="0" />
        <mxCell id="1" parent="0" />
      </root>
    </mxGraphModel>
  </diagram>
</mxfile>
